# xmcd
#
# Track frame offsets: 
#        180
#        5784
#        7797
#        13339
#        18566
#        24470
#        27549
#        32902
#        38457
#        44148
#        49541
#        55117
#        65700
#        71555
#        73966
#        77896
#        83036
#        87362
#        94392
#        100805
#        108807
#        112555
#        117470
#        123070
#        128321
#        132215
#        137071
#        142527
#        151403
#        161323
#        170238
#        173928
#        178886
#        188762
#        197003
#        206408
#        215051
#        222510
#        227735
#        232747
#        236994
#        245340
#        256313
#        259733
#        264121
#        267634
#        271969
#        280945
#        291667
#        297074
#        303660
#        309167
#        314750
#        320026
#        328844
#        334332
#        342121
#        348544
#
# Disc length: 4752 seconds
#
# Revision: 0
# Processed by: cddbd v1.5.1PL0 Copyright (c) Steve Scherf et al.
# Submitted via: ExactAudioCopy v0.95a5
#
DISCID=63128e3a
DTITLE=Jack Hatfield - Bluegrass Banjo Method Book Two
DYEAR=1994
DGENRE=Bluegrass
TTITLE0=Tuning
TTITLE1=Recording Notes
TTITLE2=All The Good Things Are Past and Gove - performing speed
TTITLE3=More Pretty Girls Than One - performing speed
TTITLE4=In The Pines - performing speed
TTITLE5=Cumberland Gap - learning speed
TTITLE6=Cumberland Gap - performing speed
TTITLE7=Sally Goodin - learning speed
TTITLE8=Sally Goodin - performing speed
TTITLE9=Roll In My Sweet Babys Arms - learning speed
TTITLE10=Roll In My Sweet Babys Arms - performing speed
TTITLE11=Amazing Grace - performing speed
TTITLE12=Exercise 1 - All two string G C and D chords
TTITLE13=Exercise 2 - Two string G C D popular grouping
TTITLE14=The Choke
TTITLE15=Lonesome Road Blues - learning speed
TTITLE16=Lonesome Road Blues - performing speed
TTITLE17=Bugle On The Banjo - learning speed
TTITLE18=Bugle On The Banjo - performing speed
TTITLE19=Banks of The Ohio - performing speed
TTITLE20=Little Maggie - learning speed
TTITLE21=Little Maggie - performing speed
TTITLE22=Salty Dog Blues - learning speed
TTITLE23=Salty Dog Blues - performing speed
TTITLE24=Make Me A Pallet On Your Floor - learning speed
TTITLE25=Make Me A Pallet On Your Floor - performing speed
TTITLE26=Sail Away Ladies - learning speed
TTITLE27=Sail Away Ladies - performing speed
TTITLE28=Black Mountain Rag - learning speed
TTITLE29=Black Mountain Rag - performing speed
TTITLE30=John Hardy - learning speed
TTITLE31=John Hardy - performing speed
TTITLE32=Salt Creek - learning speed
TTITLE33=Salt Creek - performing speed
TTITLE34=Bill Cheatham - learning speed
TTITLE35=Bill Chearham - performing speed
TTITLE36=Train 45 - learning speed
TTITLE37=Train 45 - performing speed
TTITLE38=Sitting On Top of the World - learning speed
TTITLE39=Sitting On Top of the World - performing speed
TTITLE40=Under The Double Eagle - learning speed
TTITLE41=Under The Double Eagle - performing speed
TTITLE42=Cumberland Gap - key of C - learning speed
TTITLE43=Cumberland Gap - key of C - performing speed
TTITLE44=Roll In Sweet Babys Arms - key of C - learning speed
TTITLE45=Roll In Sweet Babys Arms - key of C - performing speed
TTITLE46=I Dont Love Nobody - learning speed
TTITLE47=I Dont Love Nobody - performing speed
TTITLE48=Battle Hymn of the Republic - learning speed
TTITLE49=Battle Hymn of the Republic - performing speed
TTITLE50=Wildwood Flower - learning speed
TTITLE51=Wildwood Flower - performing speed
TTITLE52=Soldiers Joy - learning speed
TTITLE53=Soldiers Joy - performing speed
TTITLE54=Kentucky Mandolin - learning speed
TTITLE55=Kentucky Mandolin - performing speed
TTITLE56=Banks of the Ohio - perofrming speed
TTITLE57=Rueben - performing speed
EXTD=
EXTT0=
EXTT1=
EXTT2=
EXTT3=
EXTT4=
EXTT5=
EXTT6=
EXTT7=
EXTT8=
EXTT9=
EXTT10=
EXTT11=
EXTT12=
EXTT13=
EXTT14=
EXTT15=
EXTT16=
EXTT17=
EXTT18=
EXTT19=
EXTT20=
EXTT21=
EXTT22=
EXTT23=
EXTT24=
EXTT25=
EXTT26=
EXTT27=
EXTT28=
EXTT29=
EXTT30=
EXTT31=
EXTT32=
EXTT33=
EXTT34=
EXTT35=
EXTT36=
EXTT37=
EXTT38=
EXTT39=
EXTT40=
EXTT41=
EXTT42=
EXTT43=
EXTT44=
EXTT45=
EXTT46=
EXTT47=
EXTT48=
EXTT49=
EXTT50=
EXTT51=
EXTT52=
EXTT53=
EXTT54=
EXTT55=
EXTT56=
EXTT57=
PLAYORDER=
